<svg xmlns="http://www.w3.org/2000/svg" version="1.1" xmlns:xlink="http://www.w3.org/1999/xlink" xmlns:svgjs="http://svgjs.com/svgjs" width="1024" height="768" preserveAspectRatio="none" viewBox="0 0 1024 768"><g mask="url(&quot;#SvgjsMask1131&quot;)" fill="none"><rect width="1024" height="768" x="0" y="0" fill="url(#SvgjsLinearGradient1132)"></rect><path d="M499.39 510.44L544.98 510.44L544.98 575.25L499.39 575.25z" fill="rgba(178, 25, 99, 1)"></path><path d="M343.76 84.39L410.59 84.39L410.59 151.22L343.76 151.22z" fill="rgba(54, 253, 179, 1)"></path><path d="M10.89 365.08L35.03 365.08L35.03 396.78L10.89 396.78z" fill="rgba(38, 64, 110, 1)"></path><path d="M206.14 9.77L225.85 9.77L225.85 84.06L206.14 84.06z" stroke="rgba(54, 253, 179, 1)"></path><path d="M828.41 311.8L878.42 311.8L878.42 358.36L828.41 358.36z" fill="rgba(38, 64, 110, 1)"></path><path d="M116.29 519.88 a48.09 48.09 0 1 0 96.18 0 a48.09 48.09 0 1 0 -96.18 0z" fill="rgba(95, 214, 218, 1)"></path><path d="M38.54 460.69a6.32 6.32 0 1 0 12.38 2.58z" stroke="rgba(21, 22, 37, 1)"></path><path d="M497.07 85.79a54.29 54.29 0 1 0 62.88-88.51z" fill="rgba(54, 253, 179, 1)"></path><path d="M342.81 606.88 a60.55 60.55 0 1 0 121.1 0 a60.55 60.55 0 1 0 -121.1 0z" fill="rgba(54, 253, 179, 1)"></path><path d="M803.61 508.91L844.19 508.91L844.19 584.27L803.61 584.27z" fill="rgba(54, 253, 179, 1)"></path><path d="M302.72 150.8a23.45 23.45 0 1 0-8.95-46.04z" stroke="rgba(21, 22, 37, 1)"></path><path d="M228.43 758.89L246.71 758.89L246.71 828.67L228.43 828.67z" fill="rgba(178, 25, 99, 1)"></path><path d="M297.53 411.76a30.58 30.58 0 1 0 41.37-45.05z" fill="rgba(95, 214, 218, 1)"></path><path d="M132.75 124.71 a10.32 10.32 0 1 0 20.64 0 a10.32 10.32 0 1 0 -20.64 0z" fill="rgba(21, 22, 37, 1)"></path><path d="M805.57 406.29L808.9 406.29L808.9 442.86L805.57 442.86z" stroke="rgba(38, 64, 110, 1)"></path><path d="M955.44 133.57L983.84 133.57L983.84 161.97L955.44 161.97z" fill="rgba(38, 64, 110, 1)"></path><path d="M564.59 498.47a53.88 53.88 0 1 0 106.42-16.96z" fill="rgba(54, 253, 179, 1)"></path></g><defs><mask id="SvgjsMask1131"><rect width="1024" height="768" fill="#ffffff"></rect></mask><linearGradient x1="6.25%" y1="108.33%" x2="93.75%" y2="-8.33%" gradientUnits="userSpaceOnUse" id="SvgjsLinearGradient1132"><stop stop-color="#0e2a47" offset="0"></stop><stop stop-color="rgba(43, 61, 84, 1)" offset="1"></stop></linearGradient></defs></svg>